<?xml version="1.0" encoding="UTF-8" standalone="no"?>
<!-- Created with Inkscape (http://www.inkscape.org/) -->

<svg
   xmlns:dc="http://purl.org/dc/elements/1.1/"
   xmlns:cc="http://creativecommons.org/ns#"
   xmlns:rdf="http://www.w3.org/1999/02/22-rdf-syntax-ns#"
   xmlns:svg="http://www.w3.org/2000/svg"
   xmlns="http://www.w3.org/2000/svg"
   xmlns:sodipodi="http://sodipodi.sourceforge.net/DTD/sodipodi-0.dtd"
   xmlns:inkscape="http://www.inkscape.org/namespaces/inkscape"
   width="16px"
   height="16px"
   viewBox="0 0 16 16"
   version="1.1"
   id="SVGRoot"
   inkscape:version="0.92.5 (2060ec1f9f, 2020-04-08)"
   sodipodi:docname="Localization.svg">
  <defs
     id="defs820" />
  <sodipodi:namedview
     id="base"
     pagecolor="#ffffff"
     bordercolor="#666666"
     borderopacity="1.0"
     inkscape:pageopacity="0.0"
     inkscape:pageshadow="2"
     inkscape:zoom="45.254834"
     inkscape:cx="2.6774157"
     inkscape:cy="8.360782"
     inkscape:document-units="px"
     inkscape:current-layer="layer1"
     showgrid="false"
     inkscape:window-width="1920"
     inkscape:window-height="1016"
     inkscape:window-x="0"
     inkscape:window-y="27"
     inkscape:window-maximized="1"
     inkscape:grid-bbox="true"
     inkscape:pagecheckerboard="true"
     showguides="true"
     inkscape:guide-bbox="true">
    <sodipodi:guide
       position="6.4965436,7.9991455"
       orientation="0,1"
       id="guide1600"
       inkscape:locked="false" />
  </sodipodi:namedview>
  <metadata
     id="metadata823">
    <rdf:RDF>
      <cc:Work
         rdf:about="">
        <dc:format>image/svg+xml</dc:format>
        <dc:type
           rdf:resource="http://purl.org/dc/dcmitype/StillImage" />
        <dc:title />
      </cc:Work>
    </rdf:RDF>
  </metadata>
  <g
     inkscape:label="Layer 1"
     inkscape:groupmode="layer"
     id="layer1">
    <path
       inkscape:connector-curvature="0"
       d="m 15.132005,14.076143 c 0,0.710802 0.361295,1.326435 0.888386,1.627565 v 0.248984 c -0.147499,0.0228 -0.298054,0.03475 -0.451134,0.03475 -0.944021,0 -1.795484,-0.445666 -2.39756,-1.160155 -0.363988,0.109073 -0.749603,0.167968 -1.149043,0.167968 -2.2078903,0 -3.9977386,-1.790534 -3.9977386,-3.999237 0,-2.2087041 1.7898483,-3.9992378 3.9977386,-3.9992378 2.207889,0 3.997737,1.7905337 3.997737,3.9992378 0,0.864647 -0.274345,1.665182 -0.740637,2.319339 -0.09472,0.231581 -0.147749,0.489157 -0.147749,0.760792 z M 7.1365293,-0.00189164 c 3.8652847,0 7.0098117,2.82155584 7.1048127,6.33504244 -0.682696,-0.3424348 -1.43788,-0.5236502 -2.218688,-0.5236502 -1.326472,0 -2.579319,0.5224941 -3.527699,1.4712508 -0.9834157,0.9837499 -1.5249982,2.3032171 -1.5249982,3.7152606 0,0.697866 0.1324806,1.372988 0.3850044,1.996307 -0.072571,0.002 -0.1453066,0.0033 -0.2184319,0.0033 -0.3769534,0 -0.7469385,-0.02709 -1.1080397,-0.07879 -1.5266084,1.718079 -3.3487994,2.026176 -5.11066363,2.071418 V 14.567769 C 1.8691765,14.043212 2.6945984,13.087738 2.6945984,11.995821 c 0,-0.152378 -0.010522,-0.301974 -0.030039,-0.44829 C 1.0571911,10.356134 0.02943929,8.5363245 0.02943929,6.4968695 c 0,-3.5891596 3.18194941,-6.49876114 7.10709001,-6.49876114 z"
       id="path5"
       style="stroke-width:0.02945165;fill:#ffffff;fill-opacity:1" />
  </g>
</svg>
